<svg xmlns="http://www.w3.org/2000/svg" viewBox="0 0 479 304.81"><defs><style>.cls-1{fill:#e2e2e2;}.cls-2{fill:#ededed;}.cls-3{fill:#c9cacc;}.cls-4{fill:#aeafb1;}.cls-5{fill:#252425;}.cls-6{fill:#f2f2f2;}.cls-7{fill:#4a50c3;}.cls-8{fill:#fff;}.cls-9{fill:#dbc35b;}.cls-10{fill:#fde169;}.cls-11{fill:#f46f6c;}.cls-12{fill:#c93737;}.cls-13{fill:#d93b3b;}.cls-14{fill:#e83f3f;}.cls-15{fill:#4c4d4f;}.cls-16{fill:#58595b;}.cls-17{fill:#ecd262;}.cls-18{fill:#ff5a5a;}.cls-19{fill:#e8e8e8;}.cls-20{fill:#f7f7f7;}.cls-21{fill:#4045a9;}</style></defs><title>404</title><g id="_404" data-name="404"><path class="cls-1" d="M541.45,247.86,441,305.86a28.08,28.08,0,0,1-28.09,0l-142.37-82.2c-8.09-4.61-7.82-18.67-1-22.61l94.22-48.92c3.68-2.13,174,87.59,177.7,89.72Z" transform="translate(-78.6 -13.38)"/><path class="cls-2" d="M541.45,241.84,441,299.84a28.08,28.08,0,0,1-28.09,0l-142.37-82.2a10.21,10.21,0,0,1,0-17.7l93.22-53.83a11.91,11.91,0,0,1,11.89,0Z" transform="translate(-78.6 -13.38)"/><path class="cls-3" d="M401.23,255.55l-20.78,12a6.21,6.21,0,0,1-6.24,0l-42.65-24.63a3.14,3.14,0,0,1,0-5.45l20.78-12a6.26,6.26,0,0,1,6.24,0l42.65,24.63A3.14,3.14,0,0,1,401.23,255.55Z" transform="translate(-78.6 -13.38)"/><path class="cls-4" d="M337.65,234c4.51-2.75,9.05-5.44,13.6-8.12a16.51,16.51,0,0,1,1.77-1,6.5,6.5,0,0,1,5.93.51l6.87,3.93,13.69,8,6.82,4,6.78,4.09-6.93-3.83-6.9-3.89-13.76-7.86-6.85-4a6.11,6.11,0,0,0-3.62-.93,6.47,6.47,0,0,0-1.84.42,16.65,16.65,0,0,0-1.72.9C346.89,228.83,342.28,231.42,337.65,234Z" transform="translate(-78.6 -13.38)"/><path class="cls-5" d="M503.94,243.29l2.37-1.37a2.73,2.73,0,0,1,2.46,0l6.37,3.68a.76.76,0,0,1,0,1.43l-2.37,1.36a2.69,2.69,0,0,1-2.47,0l-6.36-3.67C503.25,244.32,503.25,243.69,503.94,243.29Z" transform="translate(-78.6 -13.38)"/><path class="cls-5" d="M495.06,235.43a2.75,2.75,0,0,1,2.47,0l6.37,3.68a.76.76,0,0,1,0,1.43l-2.37,1.36a2.69,2.69,0,0,1-2.47,0l-6.36-3.67c-.69-.4-.69-1,0-1.43Z" transform="translate(-78.6 -13.38)"/><path class="cls-5" d="M487.82,235.41l-6.36-3.67c-.69-.4-.69-1,0-1.43l2.37-1.37a2.73,2.73,0,0,1,2.46,0l6.37,3.68a.76.76,0,0,1,0,1.43l-2.37,1.36A2.69,2.69,0,0,1,487.82,235.41Z" transform="translate(-78.6 -13.38)"/><path class="cls-5" d="M475.05,222.45l6.37,3.68a.76.76,0,0,1,0,1.43l-2.37,1.36a2.69,2.69,0,0,1-2.47,0l-6.36-3.67c-.69-.4-.69-1,0-1.43l2.36-1.37A2.75,2.75,0,0,1,475.05,222.45Z" transform="translate(-78.6 -13.38)"/><path class="cls-5" d="M463.81,216l6.37,3.68a.76.76,0,0,1,0,1.43l-2.37,1.36a2.69,2.69,0,0,1-2.47,0L459,218.76c-.69-.4-.69-1,0-1.43l2.36-1.37A2.75,2.75,0,0,1,463.81,216Z" transform="translate(-78.6 -13.38)"/><path class="cls-5" d="M452.57,209.47l6.37,3.68a.76.76,0,0,1,0,1.43l-2.37,1.36a2.69,2.69,0,0,1-2.47,0l-6.36-3.67c-.69-.4-.69-1,0-1.43l2.36-1.37A2.75,2.75,0,0,1,452.57,209.47Z" transform="translate(-78.6 -13.38)"/><path class="cls-5" d="M441.33,203l6.37,3.68a.76.76,0,0,1,0,1.43l-2.37,1.36a2.69,2.69,0,0,1-2.47,0l-6.36-3.67c-.69-.4-.69-1,0-1.43l2.36-1.37A2.75,2.75,0,0,1,441.33,203Z" transform="translate(-78.6 -13.38)"/><path class="cls-5" d="M430.09,196.49l6.37,3.68a.76.76,0,0,1,0,1.43L434.09,203a2.69,2.69,0,0,1-2.47,0l-6.36-3.67c-.69-.4-.69-1,0-1.43l2.36-1.37A2.75,2.75,0,0,1,430.09,196.49Z" transform="translate(-78.6 -13.38)"/><path class="cls-5" d="M418.85,190l6.37,3.68a.76.76,0,0,1,0,1.43l-2.37,1.36a2.69,2.69,0,0,1-2.47,0L414,192.8a.76.76,0,0,1,0-1.43l2.37-1.37A2.75,2.75,0,0,1,418.85,190Z" transform="translate(-78.6 -13.38)"/><path class="cls-5" d="M402.77,184.88l2.37-1.37a2.75,2.75,0,0,1,2.47,0l6.37,3.68a.76.76,0,0,1,0,1.43L411.61,190a2.69,2.69,0,0,1-2.47,0l-6.37-3.67A.76.76,0,0,1,402.77,184.88Z" transform="translate(-78.6 -13.38)"/><path class="cls-5" d="M402.74,182.13l-2.37,1.36a2.69,2.69,0,0,1-2.47,0l-6.37-3.67a.76.76,0,0,1,0-1.43L393.9,177a2.75,2.75,0,0,1,2.47,0l6.37,3.68A.76.76,0,0,1,402.74,182.13Z" transform="translate(-78.6 -13.38)"/><path class="cls-5" d="M385.13,170.53l6.37,3.68a.76.76,0,0,1,0,1.43L389.13,177a2.69,2.69,0,0,1-2.47,0l-6.37-3.67a.76.76,0,0,1,0-1.43l2.37-1.37A2.75,2.75,0,0,1,385.13,170.53Z" transform="translate(-78.6 -13.38)"/><path class="cls-5" d="M369.05,165.41l2.37-1.37a2.75,2.75,0,0,1,2.47,0l6.37,3.68a.76.76,0,0,1,0,1.43l-2.37,1.36a2.69,2.69,0,0,1-2.47,0l-6.37-3.67A.76.76,0,0,1,369.05,165.41Z" transform="translate(-78.6 -13.38)"/><path class="cls-5" d="M369,162.66,366.65,164a2.69,2.69,0,0,1-2.47,0l-6.37-3.67a.76.76,0,0,1,0-1.43l2.37-1.37a2.75,2.75,0,0,1,2.47,0l6.37,3.68A.76.76,0,0,1,369,162.66Z" transform="translate(-78.6 -13.38)"/><path class="cls-5" d="M488.21,246.78l4.47-2.58a5.15,5.15,0,0,1,4.65,0l9,5.21a1.42,1.42,0,0,1,0,2.69l-4.47,2.58a5.15,5.15,0,0,1-4.65,0l-9-5.21A1.42,1.42,0,0,1,488.21,246.78Z" transform="translate(-78.6 -13.38)"/><path class="cls-5" d="M472.68,252.18l4.47-2.58a5.15,5.15,0,0,1,4.65,0l12.11,7c1.29.74,1.29,1.94,0,2.68l-4.46,2.58a5.17,5.17,0,0,1-4.66,0l-12.11-7A1.42,1.42,0,0,1,472.68,252.18Z" transform="translate(-78.6 -13.38)"/><path class="cls-5" d="M355.72,179.49l-4.47,2.58a5.15,5.15,0,0,1-4.65,0l-12.11-7c-1.29-.75-1.29-2,0-2.69l4.46-2.58a5.17,5.17,0,0,1,4.66,0l12.11,7C357,177.55,357,178.75,355.72,179.49Z" transform="translate(-78.6 -13.38)"/><path class="cls-5" d="M455.28,256.51l4.47-2.58a5.15,5.15,0,0,1,4.65,0l17.07,9.85a1.42,1.42,0,0,1,0,2.69L477,269.05a5.17,5.17,0,0,1-4.66,0l-17.07-9.86C454,258.45,454,257.25,455.28,256.51Z" transform="translate(-78.6 -13.38)"/><path class="cls-5" d="M349.59,190.32l-4.47,2.58a5.15,5.15,0,0,1-4.65,0l-18.42-10.64c-1.29-.74-1.29-1.94,0-2.69l4.46-2.57a5.09,5.09,0,0,1,4.65,0l18.43,10.63A1.42,1.42,0,0,1,349.59,190.32Z" transform="translate(-78.6 -13.38)"/><path class="cls-5" d="M349.41,211l4.46-2.58a5.15,5.15,0,0,1,4.65,0L427.06,248c1.28.75,1.28,2,0,2.69l-4.46,2.58a5.17,5.17,0,0,1-4.66,0l-68.53-39.57C348.12,212.94,348.12,211.73,349.41,211Z" transform="translate(-78.6 -13.38)"/><path class="cls-5" d="M489.72,224.64l-1.69,1a2,2,0,0,1-1.78,0l-26.08-15.06a.54.54,0,0,1,0-1l1.7-1a1.91,1.91,0,0,1,1.77,0l26.08,15.06A.54.54,0,0,1,489.72,224.64Z" transform="translate(-78.6 -13.38)"/><path class="cls-5" d="M433.69,192.29l-1.7,1a2,2,0,0,1-1.77,0l-26.09-15.06c-.49-.29-.49-.75,0-1l1.7-1a2,2,0,0,1,1.77,0l26.09,15.06A.54.54,0,0,1,433.69,192.29Z" transform="translate(-78.6 -13.38)"/><path class="cls-5" d="M490.05,242.68l-4.47,2.58a5.15,5.15,0,0,1-4.65,0l-4.47-2.58c-1.28-.74-1.28-1.94,0-2.68l4.47-2.58a5.15,5.15,0,0,1,4.65,0l4.47,2.58C491.33,240.74,491.33,241.94,490.05,242.68Z" transform="translate(-78.6 -13.38)"/><path class="cls-5" d="M516.65,242.15l1.7-1a2,2,0,0,1,1.77,0l1.7,1a.54.54,0,0,1,0,1l-1.7,1a1.91,1.91,0,0,1-1.77,0l-1.7-1A.54.54,0,0,1,516.65,242.15Z" transform="translate(-78.6 -13.38)"/><path class="cls-5" d="M516.62,240.17l-1.7,1a2,2,0,0,1-1.77,0l-1.7-1a.54.54,0,0,1,0-1l1.7-1a1.91,1.91,0,0,1,1.77,0l1.7,1A.54.54,0,0,1,516.62,240.17Z" transform="translate(-78.6 -13.38)"/><path class="cls-5" d="M511.42,237.17l-1.7,1a2,2,0,0,1-1.77,0l-1.7-1c-.49-.28-.49-.74,0-1l1.7-1a2,2,0,0,1,1.77,0l1.7,1C511.91,236.43,511.91,236.89,511.42,237.17Z" transform="translate(-78.6 -13.38)"/><path class="cls-5" d="M506.22,234.17l-1.7,1a2,2,0,0,1-1.77,0l-1.7-1c-.49-.29-.49-.75,0-1l1.7-1a2,2,0,0,1,1.77,0l1.7,1C506.71,233.42,506.71,233.88,506.22,234.17Z" transform="translate(-78.6 -13.38)"/><path class="cls-5" d="M501,231.16l-1.7,1a1.91,1.91,0,0,1-1.77,0l-1.7-1a.54.54,0,0,1,0-1l1.7-1a2,2,0,0,1,1.77,0l1.7,1A.54.54,0,0,1,501,231.16Z" transform="translate(-78.6 -13.38)"/><path class="cls-5" d="M495.82,228.16l-1.7,1a2,2,0,0,1-1.77,0l-1.7-1a.54.54,0,0,1,0-1l1.7-1a1.91,1.91,0,0,1,1.77,0l1.7,1A.54.54,0,0,1,495.82,228.16Z" transform="translate(-78.6 -13.38)"/><path class="cls-5" d="M459.77,207.35l-1.7,1a2,2,0,0,1-1.77,0l-1.7-1c-.49-.29-.49-.75,0-1l1.7-1a2,2,0,0,1,1.77,0l1.7,1C460.26,206.6,460.26,207.06,459.77,207.35Z" transform="translate(-78.6 -13.38)"/><path class="cls-5" d="M454.57,204.34l-1.7,1a1.91,1.91,0,0,1-1.77,0l-1.7-1a.54.54,0,0,1,0-1l1.7-1a2,2,0,0,1,1.77,0l1.7,1A.54.54,0,0,1,454.57,204.34Z" transform="translate(-78.6 -13.38)"/><path class="cls-5" d="M449.37,201.34l-1.7,1a2,2,0,0,1-1.77,0l-1.7-1a.54.54,0,0,1,0-1l1.7-1a1.91,1.91,0,0,1,1.77,0l1.7,1A.54.54,0,0,1,449.37,201.34Z" transform="translate(-78.6 -13.38)"/><path class="cls-5" d="M444.17,198.34l-1.7,1a2,2,0,0,1-1.77,0l-1.7-1a.54.54,0,0,1,0-1l1.7-1a2,2,0,0,1,1.77,0l1.7,1A.54.54,0,0,1,444.17,198.34Z" transform="translate(-78.6 -13.38)"/><path class="cls-5" d="M439.33,195.54l-1.7,1a1.91,1.91,0,0,1-1.77,0l-1.7-1a.54.54,0,0,1,0-1l1.7-1a2,2,0,0,1,1.77,0l1.7,1A.54.54,0,0,1,439.33,195.54Z" transform="translate(-78.6 -13.38)"/><path class="cls-5" d="M396.29,170.69l-1.7,1a2,2,0,0,1-1.78,0l-1.7-1a.54.54,0,0,1,0-1l1.7-1a1.93,1.93,0,0,1,1.78,0l1.7,1A.54.54,0,0,1,396.29,170.69Z" transform="translate(-78.6 -13.38)"/><path class="cls-5" d="M401.51,173.7l-1.7,1a2,2,0,0,1-1.77,0l-1.7-1a.54.54,0,0,1,0-1l1.7-1a2,2,0,0,1,1.77,0l1.7,1A.54.54,0,0,1,401.51,173.7Z" transform="translate(-78.6 -13.38)"/><path class="cls-5" d="M391.09,167.69l-1.7,1a2,2,0,0,1-1.78,0l-1.69-1a.54.54,0,0,1,0-1l1.69-1a2,2,0,0,1,1.78,0l1.7,1A.55.55,0,0,1,391.09,167.69Z" transform="translate(-78.6 -13.38)"/><path class="cls-5" d="M385.89,164.68l-1.7,1a2,2,0,0,1-1.77,0l-1.7-1a.54.54,0,0,1,0-1l1.7-1a2,2,0,0,1,1.77,0l1.7,1A.54.54,0,0,1,385.89,164.68Z" transform="translate(-78.6 -13.38)"/><path class="cls-5" d="M380.69,161.68l-1.7,1a1.91,1.91,0,0,1-1.77,0l-1.7-1a.54.54,0,0,1,0-1l1.7-1a2,2,0,0,1,1.77,0l1.7,1A.54.54,0,0,1,380.69,161.68Z" transform="translate(-78.6 -13.38)"/><path class="cls-5" d="M375.49,158.68l-1.7,1a2,2,0,0,1-1.77,0l-1.7-1a.54.54,0,0,1,0-1l1.7-1a1.91,1.91,0,0,1,1.77,0l1.7,1A.54.54,0,0,1,375.49,158.68Z" transform="translate(-78.6 -13.38)"/><path class="cls-5" d="M370.29,155.68l-1.7,1a2,2,0,0,1-1.77,0l-1.7-1c-.49-.28-.49-.74,0-1l1.7-1a2,2,0,0,1,1.77,0l1.7,1C370.78,154.94,370.78,155.4,370.29,155.68Z" transform="translate(-78.6 -13.38)"/><path class="cls-5" d="M473.42,247.66,469.31,250a5.53,5.53,0,0,1-5,0l-4.1-2.37c-1.39-.8-1.39-2.09,0-2.89l4.1-2.38a5.59,5.59,0,0,1,5,0l4.11,2.38C474.81,245.57,474.81,246.86,473.42,247.66Z" transform="translate(-78.6 -13.38)"/><path class="cls-5" d="M452.63,243.29l-4.11-2.37c-1.39-.8-1.39-2.1,0-2.9l4.11-2.37a5.53,5.53,0,0,1,5,0l4.1,2.37c1.39.8,1.39,2.1,0,2.9l-4.1,2.37A5.53,5.53,0,0,1,452.63,243.29Z" transform="translate(-78.6 -13.38)"/><path class="cls-5" d="M450.07,234.17,446,236.55a5.59,5.59,0,0,1-5,0l-4.11-2.38c-1.38-.8-1.38-2.09,0-2.89l4.11-2.37a5.53,5.53,0,0,1,5,0l4.11,2.37C451.45,232.08,451.45,233.37,450.07,234.17Z" transform="translate(-78.6 -13.38)"/><path class="cls-5" d="M429.27,229.8l-4.11-2.37c-1.38-.8-1.38-2.09,0-2.89l4.11-2.37a5.53,5.53,0,0,1,5,0l4.11,2.37c1.38.8,1.38,2.09,0,2.89l-4.11,2.37A5.53,5.53,0,0,1,429.27,229.8Z" transform="translate(-78.6 -13.38)"/><path class="cls-5" d="M417.59,223.06l-4.11-2.37c-1.38-.8-1.38-2.1,0-2.9l4.11-2.37a5.53,5.53,0,0,1,5,0l4.11,2.37c1.38.8,1.38,2.1,0,2.9l-4.11,2.37A5.53,5.53,0,0,1,417.59,223.06Z" transform="translate(-78.6 -13.38)"/><path class="cls-5" d="M405.91,216.32l-4.1-2.37c-1.39-.8-1.39-2.1,0-2.9l4.1-2.37a5.53,5.53,0,0,1,5,0l4.11,2.37c1.39.8,1.39,2.1,0,2.9l-4.11,2.37A5.53,5.53,0,0,1,405.91,216.32Z" transform="translate(-78.6 -13.38)"/><path class="cls-5" d="M394.24,209.57l-4.11-2.37c-1.39-.8-1.39-2.09,0-2.89l4.11-2.37a5.53,5.53,0,0,1,5,0l4.1,2.37c1.39.8,1.39,2.09,0,2.89l-4.1,2.37A5.53,5.53,0,0,1,394.24,209.57Z" transform="translate(-78.6 -13.38)"/><path class="cls-5" d="M382.56,202.83l-4.11-2.37c-1.38-.8-1.38-2.09,0-2.89l4.11-2.38a5.59,5.59,0,0,1,5,0l4.11,2.38c1.38.8,1.38,2.09,0,2.89l-4.11,2.37A5.53,5.53,0,0,1,382.56,202.83Z" transform="translate(-78.6 -13.38)"/><path class="cls-5" d="M370.88,196.09l-4.11-2.37c-1.38-.8-1.38-2.1,0-2.9l4.11-2.37a5.53,5.53,0,0,1,5,0l4.11,2.37c1.38.8,1.38,2.1,0,2.9l-4.11,2.37A5.53,5.53,0,0,1,370.88,196.09Z" transform="translate(-78.6 -13.38)"/><path class="cls-5" d="M359.2,189.35,355.09,187c-1.38-.79-1.38-2.09,0-2.89l4.11-2.37a5.53,5.53,0,0,1,5,0l4.11,2.37c1.38.8,1.38,2.1,0,2.89l-4.11,2.38A5.59,5.59,0,0,1,359.2,189.35Z" transform="translate(-78.6 -13.38)"/><path class="cls-5" d="M455.12,251.51,451,253.89a5.53,5.53,0,0,1-5,0l-4.11-2.38c-1.38-.79-1.38-2.09,0-2.89l4.11-2.37a5.53,5.53,0,0,1,5,0l4.11,2.37C456.5,249.42,456.5,250.72,455.12,251.51Z" transform="translate(-78.6 -13.38)"/><path class="cls-5" d="M454.54,271.49l4.11-2.37a5.53,5.53,0,0,1,5,0l4.11,2.37c1.38.8,1.38,2.09,0,2.89l-4.11,2.37a5.53,5.53,0,0,1-5,0l-4.11-2.37C453.16,273.58,453.16,272.29,454.54,271.49Z" transform="translate(-78.6 -13.38)"/><path class="cls-5" d="M441.09,263.72l4.11-2.37a5.53,5.53,0,0,1,5,0l4.11,2.37c1.38.8,1.38,2.1,0,2.9L450.21,269a5.53,5.53,0,0,1-5,0l-4.11-2.37C439.71,265.82,439.71,264.52,441.09,263.72Z" transform="translate(-78.6 -13.38)"/><path class="cls-5" d="M427.65,256l4.1-2.37a5.55,5.55,0,0,1,5,0l4.1,2.37c1.39.8,1.39,2.1,0,2.89l-4.1,2.38a5.61,5.61,0,0,1-5,0l-4.1-2.38C426.26,258.06,426.26,256.76,427.65,256Z" transform="translate(-78.6 -13.38)"/><path class="cls-5" d="M335.84,203l4.11-2.37a5.53,5.53,0,0,1,5,0l4.11,2.37c1.38.8,1.38,2.1,0,2.89L345,208.22a5.53,5.53,0,0,1-5,0l-4.11-2.38C334.46,205.05,334.46,203.75,335.84,203Z" transform="translate(-78.6 -13.38)"/><path class="cls-5" d="M322.39,195.19l4.11-2.37a5.53,5.53,0,0,1,5,0l4.11,2.37c1.38.8,1.38,2.09,0,2.89l-4.11,2.37a5.53,5.53,0,0,1-5,0l-4.11-2.37C321,197.28,321,196,322.39,195.19Z" transform="translate(-78.6 -13.38)"/><path class="cls-5" d="M309,187.42l4.1-2.37a5.55,5.55,0,0,1,5,0l4.1,2.37c1.39.8,1.39,2.1,0,2.9l-4.1,2.37a5.55,5.55,0,0,1-5,0l-4.1-2.37C307.56,189.52,307.56,188.22,309,187.42Z" transform="translate(-78.6 -13.38)"/><path class="cls-5" d="M434.32,247.14l-4.1-2.37c-1.39-.8-1.39-2.09,0-2.89l4.1-2.37a5.53,5.53,0,0,1,5,0l4.11,2.37c1.39.8,1.39,2.09,0,2.89l-4.11,2.37A5.53,5.53,0,0,1,434.32,247.14Z" transform="translate(-78.6 -13.38)"/><path class="cls-5" d="M422.65,240.4,418.54,238c-1.39-.8-1.39-2.1,0-2.89l4.11-2.38a5.59,5.59,0,0,1,5,0l4.1,2.38c1.39.79,1.39,2.09,0,2.89l-4.1,2.37A5.53,5.53,0,0,1,422.65,240.4Z" transform="translate(-78.6 -13.38)"/><path class="cls-5" d="M411,233.66l-4.11-2.37c-1.38-.8-1.38-2.1,0-2.9L411,226a5.53,5.53,0,0,1,5,0l4.11,2.37c1.38.8,1.38,2.1,0,2.9L416,233.66A5.53,5.53,0,0,1,411,233.66Z" transform="translate(-78.6 -13.38)"/><path class="cls-5" d="M399.29,226.92l-4.11-2.38c-1.38-.8-1.38-2.09,0-2.89l4.11-2.37a5.53,5.53,0,0,1,5,0l4.11,2.37c1.38.8,1.38,2.09,0,2.89l-4.11,2.38A5.59,5.59,0,0,1,399.29,226.92Z" transform="translate(-78.6 -13.38)"/><path class="cls-5" d="M387.61,220.17l-4.11-2.37c-1.38-.8-1.38-2.09,0-2.89l4.11-2.37a5.53,5.53,0,0,1,5,0l4.11,2.37c1.38.8,1.38,2.09,0,2.89l-4.11,2.37A5.53,5.53,0,0,1,387.61,220.17Z" transform="translate(-78.6 -13.38)"/><path class="cls-5" d="M375.93,213.43l-4.1-2.37c-1.39-.8-1.39-2.1,0-2.9l4.1-2.37a5.55,5.55,0,0,1,5,0l4.1,2.37c1.39.8,1.39,2.1,0,2.9l-4.1,2.37A5.55,5.55,0,0,1,375.93,213.43Z" transform="translate(-78.6 -13.38)"/><path class="cls-5" d="M364.26,206.69l-4.11-2.38c-1.39-.79-1.39-2.09,0-2.89l4.11-2.37a5.53,5.53,0,0,1,5,0l4.1,2.37c1.39.8,1.39,2.1,0,2.89l-4.1,2.38A5.53,5.53,0,0,1,364.26,206.69Z" transform="translate(-78.6 -13.38)"/><path class="cls-5" d="M352.58,199.94l-4.11-2.37c-1.38-.8-1.38-2.09,0-2.89l4.11-2.37a5.53,5.53,0,0,1,5,0l4.11,2.37c1.38.8,1.38,2.09,0,2.89l-4.11,2.37A5.53,5.53,0,0,1,352.58,199.94Z" transform="translate(-78.6 -13.38)"/><path class="cls-5" d="M469.18,238.48l-4.46-2.58c-1.29-.74-1.29-2,0-2.69l4.46-2.57a5.09,5.09,0,0,1,4.65,0l4.47,2.57a1.42,1.42,0,0,1,0,2.69l-4.47,2.58A5.15,5.15,0,0,1,469.18,238.48Z" transform="translate(-78.6 -13.38)"/><path class="cls-5" d="M457.43,223.85a5.17,5.17,0,0,1,4.66,0l4.46,2.58c1.29.74,1.29,1.94,0,2.69l-4.46,2.57a5.11,5.11,0,0,1-4.66,0L453,229.12c-1.29-.75-1.29-2,0-2.69Z" transform="translate(-78.6 -13.38)"/><path class="cls-5" d="M445.68,224.91l-4.46-2.58c-1.29-.74-1.29-1.94,0-2.68l4.46-2.58a5.17,5.17,0,0,1,4.66,0l4.46,2.58c1.29.74,1.29,1.94,0,2.68l-4.46,2.58A5.17,5.17,0,0,1,445.68,224.91Z" transform="translate(-78.6 -13.38)"/><path class="cls-5" d="M438.59,210.28l4.46,2.58c1.29.74,1.29,1.95,0,2.69l-4.46,2.58a5.17,5.17,0,0,1-4.66,0l-4.46-2.58c-1.29-.74-1.29-2,0-2.69l4.46-2.58A5.17,5.17,0,0,1,438.59,210.28Z" transform="translate(-78.6 -13.38)"/><path class="cls-5" d="M426.84,203.5l4.46,2.58c1.29.74,1.29,1.94,0,2.69l-4.46,2.57a5.09,5.09,0,0,1-4.65,0l-4.47-2.57c-1.28-.75-1.28-2,0-2.69l4.47-2.58A5.15,5.15,0,0,1,426.84,203.5Z" transform="translate(-78.6 -13.38)"/><path class="cls-5" d="M415.09,204.56a5.15,5.15,0,0,1-4.65,0L406,202c-1.28-.74-1.28-1.94,0-2.69l4.47-2.57a5.09,5.09,0,0,1,4.65,0l4.47,2.57c1.28.75,1.28,2,0,2.69Z" transform="translate(-78.6 -13.38)"/><path class="cls-5" d="M403.34,189.93l4.47,2.58a1.42,1.42,0,0,1,0,2.69l-4.47,2.58a5.15,5.15,0,0,1-4.65,0l-4.47-2.58a1.42,1.42,0,0,1,0-2.69l4.47-2.58A5.15,5.15,0,0,1,403.34,189.93Z" transform="translate(-78.6 -13.38)"/><path class="cls-5" d="M396.06,185.73c1.28.74,1.28,1.94,0,2.68L391.59,191a5.15,5.15,0,0,1-4.65,0l-4.47-2.58c-1.28-.74-1.28-1.94,0-2.68l4.47-2.58a5.15,5.15,0,0,1,4.65,0Z" transform="translate(-78.6 -13.38)"/><path class="cls-5" d="M375.19,184.21l-4.46-2.58c-1.29-.74-1.29-1.94,0-2.69l4.46-2.57a5.09,5.09,0,0,1,4.65,0l4.47,2.57c1.28.75,1.28,1.95,0,2.69l-4.47,2.58A5.15,5.15,0,0,1,375.19,184.21Z" transform="translate(-78.6 -13.38)"/><path class="cls-5" d="M359,172.16l4.46-2.58a5.17,5.17,0,0,1,4.66,0l4.46,2.58c1.29.74,1.29,1.94,0,2.69l-4.46,2.57a5.11,5.11,0,0,1-4.66,0L359,174.85C357.69,174.1,357.69,172.9,359,172.16Z" transform="translate(-78.6 -13.38)"/><path class="cls-5" d="M360.81,168.06l-4.46,2.58a5.17,5.17,0,0,1-4.66,0l-4.76-2.75c-1.28-.74-1.28-1.94,0-2.69l4.47-2.57a5.09,5.09,0,0,1,4.65,0l4.76,2.75C362.1,166.12,362.1,167.32,360.81,168.06Z" transform="translate(-78.6 -13.38)"/><path class="cls-1" d="M545.85,239.22V125.72a32.27,32.27,0,0,0-16.14-27.95L384.93,14.18c-4.82-2.78-14.74,2.07-14.74,7.63l171.26,220Z" transform="translate(-78.6 -13.38)"/><path class="cls-6" d="M541.45,241.85V128.34a32.26,32.26,0,0,0-16.13-27.94L380.53,16.81a7.22,7.22,0,0,0-10.83,6.25V142.77Z" transform="translate(-78.6 -13.38)"/><polygon class="cls-7" points="452.09 208.36 452.09 103.92 301.81 17.48 301.81 121.58 452.09 208.36"/><path class="cls-1" d="M515,118.51,384.53,43.17a3,3,0,0,0-3-.29L379,44.34a3,3,0,0,1,3,.3L512.49,120a9.3,9.3,0,0,1,4.22,7.31l-.27,95.49a3,3,0,0,1-1.23,2.71l2.52-1.46A3,3,0,0,0,519,221.3l.27-95.48A9.29,9.29,0,0,0,515,118.51Z" transform="translate(-78.6 -13.38)"/><path class="cls-8" d="M512.49,120a9.3,9.3,0,0,1,4.22,7.31l-.27,95.49c0,2.68-1.91,3.77-4.25,2.42L381.7,149.85a9.3,9.3,0,0,1-4.21-7.3l.27-95.49c0-2.69,1.9-3.77,4.24-2.42Z" transform="translate(-78.6 -13.38)"/><path class="cls-9" d="M514.88,118.51,384.39,43.17a3,3,0,0,0-3-.29l-2.52,1.46a3,3,0,0,1,3,.3L512.36,120a9.33,9.33,0,0,1,4.22,7.31l0,6.47,2.52-1.46,0-6.47A9.29,9.29,0,0,0,514.88,118.51Z" transform="translate(-78.6 -13.38)"/><path class="cls-10" d="M512.36,120a9.33,9.33,0,0,1,4.22,7.31l0,6.47L377.61,53.53l0-6.47c0-2.69,1.9-3.77,4.24-2.42Z" transform="translate(-78.6 -13.38)"/><path class="cls-11" d="M427.78,143.87l-2.14-1.24v-8L408.86,125v-2.11l12.76-16.06,2.32,1.34-12.78,16,14.48,8.36V119.25l2.14,1.24v13.3L431,136.5v1.26l-3.23-1.86Z" transform="translate(-78.6 -13.38)"/><path class="cls-11" d="M434.78,131.21q0-17,12.62-9.75,12.39,7.16,12.4,24.19t-12.4,9.78Q435.45,148.53,434.78,131.21Zm12.62,22.11q10.05,5.81,10.05-9.17,0-14.78-10.05-20.58-10.26-5.94-10.27,8.85Q437.13,147.39,447.4,153.32Z" transform="translate(-78.6 -13.38)"/><path class="cls-11" d="M482.19,175.28,480.05,174v-8l-16.78-9.69v-2.11L476,138.22l2.32,1.34-12.78,16.05L480.05,164V150.66l2.14,1.24v13.31l3.23,2.7v1.27l-3.23-1.86Z" transform="translate(-78.6 -13.38)"/><path class="cls-11" d="M425.65,149.14v1l-7.91-4.58v6.21l7.59,4.39v1l-7.59-4.38v6.42l8.05,4.65v1l-9.05-5.22V144Z" transform="translate(-78.6 -13.38)"/><path class="cls-11" d="M428.59,166.41V150.83l5.6,3.23a6.52,6.52,0,0,1,3.68,5.87q0,3.24-4,2.28l4.58,9.9-1.36-.79-4.51-9.83v-.77q4.17,1.71,4.17-1.35A4.88,4.88,0,0,0,434,155l-4.44-2.56V167Z" transform="translate(-78.6 -13.38)"/><path class="cls-11" d="M440.32,173.18V157.6l5.6,3.23a6.54,6.54,0,0,1,3.68,5.87q0,3.24-4,2.28l4.59,9.9-1.37-.79-4.51-9.83v-.77q4.19,1.71,4.18-1.35a4.88,4.88,0,0,0-2.73-4.39l-4.45-2.56v14.57Z" transform="translate(-78.6 -13.38)"/><path class="cls-11" d="M451.57,171.91q0-7.92,6.81-4a12.74,12.74,0,0,1,6.72,11.8q0,7.88-6.72,4A12.79,12.79,0,0,1,451.57,171.91Zm6.81,10.83c3.75,2.16,5.62.93,5.62-3.72s-1.87-8-5.62-10.12-5.72-1-5.72,3.57S454.57,180.54,458.38,182.74Z" transform="translate(-78.6 -13.38)"/><path class="cls-11" d="M467.66,189V173.39l5.6,3.23a6.52,6.52,0,0,1,3.69,5.87c0,2.15-1.34,2.91-4,2.28l4.58,9.9-1.36-.79-4.51-9.83v-.77c2.78,1.13,4.18.69,4.18-1.35a4.88,4.88,0,0,0-2.74-4.39L468.66,175v14.56Z" transform="translate(-78.6 -13.38)"/><polygon class="cls-7" points="310.56 58.66 307.74 57.03 307.74 53.79 310.56 55.42 310.56 58.66"/><polygon class="cls-7" points="316.43 62.04 313.6 60.41 313.6 57.17 316.43 58.8 316.43 62.04"/><polygon class="cls-7" points="431.78 125.69 425.57 122.11 425.57 120.99 431.78 124.57 431.78 125.69"/><polygon class="cls-7" points="431.78 127.58 425.57 124 425.57 122.88 431.78 126.46 431.78 127.58"/><polygon class="cls-7" points="431.78 129.47 425.57 125.89 425.57 124.77 431.78 128.35 431.78 129.47"/><polygon class="cls-1" points="404.81 114.65 332.27 72.77 332.27 66.37 404.81 108.25 404.81 114.65"/><path class="cls-7" d="M491.16,132.5l-4.74-2.74a1,1,0,0,1-.42-.8v-5.28c0-.31.19-.45.42-.32l4.74,2.74a1,1,0,0,1,.42.8v5.28C491.58,132.49,491.39,132.63,491.16,132.5Z" transform="translate(-78.6 -13.38)"/><path class="cls-1" d="M488.35,128.67a2.86,2.86,0,0,1-1.3-2.25c0-.82.58-1.15,1.3-.74a2.88,2.88,0,0,1,1.31,2.25C489.66,128.75,489.07,129.09,488.35,128.67Zm0-2.45c-.46-.26-.83,0-.83.48a1.84,1.84,0,0,0,.83,1.43c.46.26.83.05.83-.47A1.84,1.84,0,0,0,488.35,126.22Z" transform="translate(-78.6 -13.38)"/><polygon class="cls-1" points="411.6 117.37 410.7 115.83 411.04 115.64 411.93 117.18 411.6 117.37"/><path class="cls-12" d="M445,285.23l-17.14,10a1.22,1.22,0,0,1-1.1,0l-17.25-10a.38.38,0,0,1-.22-.32v1.59a.38.38,0,0,0,.23.31l17.25,10a1.19,1.19,0,0,0,1.1,0l17.13-10a.38.38,0,0,0,.23-.31v-1.58A.38.38,0,0,1,445,285.23Z" transform="translate(-78.6 -13.38)"/><path class="cls-13" d="M445,284.6a.33.33,0,0,1,0,.63l-17.14,10a1.19,1.19,0,0,1-1.1,0l-17.25-10a.33.33,0,0,1,0-.63l17.14-10a1.19,1.19,0,0,1,1.1,0Z" transform="translate(-78.6 -13.38)"/><path class="cls-14" d="M438.4,284.31h0a4,4,0,0,0-.58-2.07l-6.73-23.94h-7.62l-6.77,24.07a4.08,4.08,0,0,0-.54,1.93h0c0,1.65,1.06,3.3,3.23,4.55,4.33,2.5,11.37,2.49,15.73,0,2.17-1.25,3.26-2.89,3.28-4.52Z" transform="translate(-78.6 -13.38)"/><path class="cls-12" d="M424.54,260.27c-1.51-.87-1.5-2.29,0-3.16a6,6,0,0,1,5.48,0c1.5.87,1.49,2.28,0,3.16A6.06,6.06,0,0,1,424.54,260.27Z" transform="translate(-78.6 -13.38)"/><path class="cls-6" d="M437.12,279.74l-1.24-4.41a7.74,7.74,0,0,1-1.63,1.24,15.44,15.44,0,0,1-14,0,7.37,7.37,0,0,1-1.6-1.21l-1.23,4.38a5.16,5.16,0,0,0,2.83,3.52,15.44,15.44,0,0,0,14,0A5.29,5.29,0,0,0,437.12,279.74Z" transform="translate(-78.6 -13.38)"/><path class="cls-6" d="M432.92,264.78a16,16,0,0,1-11.28,0L420,270.68c.1.05.18.12.28.17a15.47,15.47,0,0,0,14,0l.31-.2Z" transform="translate(-78.6 -13.38)"/><path class="cls-12" d="M314.36,210.4l-17.14,10a1.22,1.22,0,0,1-1.1,0l-17.25-10a.37.37,0,0,1-.22-.32v1.59a.41.41,0,0,0,.23.32l17.25,9.95a1.19,1.19,0,0,0,1.1,0l17.13-10a.38.38,0,0,0,.23-.31v-1.58A.38.38,0,0,1,314.36,210.4Z" transform="translate(-78.6 -13.38)"/><path class="cls-13" d="M314.35,209.77a.33.33,0,0,1,0,.63l-17.14,10a1.19,1.19,0,0,1-1.1,0l-17.25-10a.33.33,0,0,1,0-.63l17.14-10a1.19,1.19,0,0,1,1.1,0Z" transform="translate(-78.6 -13.38)"/><path class="cls-14" d="M307.73,209.48h0a4,4,0,0,0-.58-2.07l-6.73-23.94H292.8L286,207.54a4.08,4.08,0,0,0-.54,1.93h0c0,1.65,1.06,3.3,3.23,4.55,4.33,2.5,11.37,2.49,15.73,0,2.17-1.25,3.26-2.88,3.28-4.52Z" transform="translate(-78.6 -13.38)"/><path class="cls-12" d="M293.87,185.44c-1.51-.87-1.5-2.29,0-3.16a6,6,0,0,1,5.48,0c1.5.87,1.49,2.28,0,3.16A6.06,6.06,0,0,1,293.87,185.44Z" transform="translate(-78.6 -13.38)"/><path class="cls-6" d="M306.45,204.91l-1.24-4.41a7.74,7.74,0,0,1-1.63,1.24,15.44,15.44,0,0,1-14,0,7.39,7.39,0,0,1-1.6-1.22l-1.23,4.38a5.16,5.16,0,0,0,2.83,3.52,15.44,15.44,0,0,0,14,0A5.29,5.29,0,0,0,306.45,204.91Z" transform="translate(-78.6 -13.38)"/><path class="cls-6" d="M302.25,190A16,16,0,0,1,291,190l-1.65,5.86c.1.05.18.12.28.17a15.47,15.47,0,0,0,14,0l.31-.2Z" transform="translate(-78.6 -13.38)"/><path class="cls-15" d="M342.85,167.51,336,163.57a1.2,1.2,0,0,0-1.22-.12l-1.69,1a1.2,1.2,0,0,1,1.22.12l6.83,3.94a3.77,3.77,0,0,1,1.7,2.94l-.26,64a1.19,1.19,0,0,1-.5,1.09l1.69-1a1.19,1.19,0,0,0,.5-1.09l.26-64A3.75,3.75,0,0,0,342.85,167.51Z" transform="translate(-78.6 -13.38)"/><path class="cls-16" d="M341.16,168.49a3.77,3.77,0,0,1,1.7,2.94l-.26,64c0,1.08-.77,1.51-1.71,1l-6.83-3.95a3.73,3.73,0,0,1-1.7-2.93l.26-64c0-1.08.77-1.52,1.71-1Z" transform="translate(-78.6 -13.38)"/><path class="cls-15" d="M396.8,198.66,390,194.71a1.21,1.21,0,0,0-1.21-.12l-1.69,1a1.21,1.21,0,0,1,1.21.12l6.84,3.95a3.69,3.69,0,0,1,1.69,2.93l-.25,64a1.19,1.19,0,0,1-.5,1.1l1.69-1a1.17,1.17,0,0,0,.5-1.09l.25-64A3.69,3.69,0,0,0,396.8,198.66Z" transform="translate(-78.6 -13.38)"/><path class="cls-16" d="M395.11,199.64a3.69,3.69,0,0,1,1.69,2.93l-.25,64c0,1.08-.77,1.52-1.71,1l-6.83-4a3.75,3.75,0,0,1-1.7-2.94l.26-64c0-1.08.77-1.51,1.7-1Z" transform="translate(-78.6 -13.38)"/><path class="cls-10" d="M321.05,195.54l2.69-1.56a4.26,4.26,0,0,0,1.93,3.34L323,198.88A4.24,4.24,0,0,1,321.05,195.54Z" transform="translate(-78.6 -13.38)"/><polygon class="cls-10" points="242.46 179.25 245.15 177.69 245.14 180.6 242.45 182.17 242.46 179.25"/><polygon class="cls-10" points="242.53 155.02 245.22 153.45 245.19 165.72 242.49 167.29 242.53 155.02"/><polygon class="cls-10" points="259.06 193.98 261.75 192.42 272.43 198.58 269.73 200.15 259.06 193.98"/><polygon class="cls-10" points="280.14 206.16 282.83 204.59 293.51 210.76 290.82 212.32 280.14 206.16"/><polygon class="cls-10" points="301.23 218.33 303.92 216.77 314.6 222.93 311.91 224.5 301.23 218.33"/><path class="cls-10" d="M399.46,196.33l-40.72,23.2,10.68,6.17,36.23-20.65,0,12-25.79,14.7,10.68,6.16,15.07-8.59,0,15c0,1.23-.87,1.73-1.94,1.11L323,198.88a4.24,4.24,0,0,1-1.93-3.34l.12-42.19c0-1.23.88-1.72,1.94-1.11l13.09,7.56-15.07,8.59,0,12.27L346.88,166l10.41,6-36.23,20.64v2.92a4.24,4.24,0,0,0,1.93,3.34l4.27,2.47L368,178.14l10.41,6-40.72,23.21,10.67,6.16,40.72-23.2Z" transform="translate(-78.6 -13.38)"/><polygon class="cls-10" points="244.38 185.51 247.07 183.94 251.34 186.41 248.65 187.97 244.38 185.51"/><polygon class="cls-16" points="268.28 152.59 242.49 167.29 242.53 155.02 257.6 146.43 268.28 152.59"/><path class="cls-16" d="M368,178.14l-40.72,23.21L323,198.88a4.24,4.24,0,0,1-1.93-3.34v-2.92L357.29,172Z" transform="translate(-78.6 -13.38)"/><polygon class="cls-16" points="310.45 176.94 269.73 200.15 259.06 193.98 299.78 170.78 310.45 176.94"/><polygon class="cls-16" points="327.02 203.64 326.98 215.91 311.91 224.5 301.23 218.33 327.02 203.64"/><path class="cls-16" d="M403.73,198.79a4.26,4.26,0,0,1,1.93,3.34v2.92L369.42,225.7l-10.68-6.17,40.72-23.2Z" transform="translate(-78.6 -13.38)"/><path class="cls-17" d="M406.42,197.23l-4.27-2.47-10.41-6-10.68-6.16-10.41-6L360,170.41l-10.41-6-10.68-6.16-13.09-7.56a1.36,1.36,0,0,0-1.38-.13l-2.69,1.56a1.38,1.38,0,0,1,1.38.13l13.09,7.56L346.88,166l10.41,6L368,178.14l10.41,6,10.68,6.17,10.41,6,4.27,2.46a4.26,4.26,0,0,1,1.93,3.34v2.92l0,12,0,12.27,0,15a1.34,1.34,0,0,1-.57,1.24l2.69-1.56a1.34,1.34,0,0,0,.57-1.24l0-15,0-12.27,0-12v-2.93A4.24,4.24,0,0,0,406.42,197.23Z" transform="translate(-78.6 -13.38)"/><path class="cls-18" d="M395,234l-64.49-37.24a1.29,1.29,0,0,1-.64-1.12V164.85a1.29,1.29,0,0,1,1.94-1.12L396.25,201a1.3,1.3,0,0,1,.65,1.12v30.75A1.3,1.3,0,0,1,395,234Z" transform="translate(-78.6 -13.38)"/><path class="cls-8" d="M338.17,180.8v-7.32l1.34.78v7.32a5.59,5.59,0,0,0,3,5.15c2,1.15,3,.57,3-1.71V177.7l1.34.77v7.32q0,4.68-4.32,2.19A7.87,7.87,0,0,1,338.17,180.8Z" transform="translate(-78.6 -13.38)"/><path class="cls-8" d="M349.21,191.78V179.86l1.34.77,6.36,13.27v-9.6l1.27.74V197l-1.34-.77-6.36-13.36v9.69Z" transform="translate(-78.6 -13.38)"/><path class="cls-8" d="M360.65,198.38V186.46l3.78,2.18a9.42,9.42,0,0,1,5.15,8.61q0,6.28-5.15,3.31Zm3.78.93c2.54,1.47,3.81.52,3.81-2.83a7.15,7.15,0,0,0-3.81-6.59l-2.44-1.4v9.42Z" transform="translate(-78.6 -13.38)"/><path class="cls-8" d="M378.34,196.67v1.25l-5.45-3.14v4l5.19,3V203l-5.19-3v4.17l5.56,3.2v1.25l-6.9-4V192.75Z" transform="translate(-78.6 -13.38)"/><path class="cls-8" d="M380.48,209.83V197.91l4.43,2.56a5.13,5.13,0,0,1,3,4.57c0,1.55-1,2.14-2.89,1.77l3.56,7.67-1.77-1-3.3-7.27v-1q3,1.19,3-.9a2.92,2.92,0,0,0-1.65-2.61l-3-1.71v10.65Z" transform="translate(-78.6 -13.38)"/><path class="cls-8" d="M340.8,196.4a4.45,4.45,0,0,1-1.31-.53,4.6,4.6,0,0,1-2.46-4.23q0-2.65,2.46-1.23a6.89,6.89,0,0,1,1.31,1v.6a6.05,6.05,0,0,0-1.24-1c-1.28-.74-1.92-.41-1.92,1a3.62,3.62,0,0,0,1.92,3.35,3.43,3.43,0,0,0,1.24.46Z" transform="translate(-78.6 -13.38)"/><path class="cls-8" d="M341.64,194.39q0-2.74,2.36-1.38a4.41,4.41,0,0,1,2.32,4.08c0,1.81-.78,2.28-2.32,1.38A4.43,4.43,0,0,1,341.64,194.39Zm2.36,3.52c1.12.64,1.68.24,1.68-1.21a3.34,3.34,0,0,0-1.68-3.13c-1.15-.66-1.72-.27-1.72,1.16A3.39,3.39,0,0,0,344,197.91Z" transform="translate(-78.6 -13.38)"/><path class="cls-8" d="M347.27,200.32v-5.38l.61.35,2.87,6V197l.57.33v5.38l-.6-.35-2.87-6v4.38Z" transform="translate(-78.6 -13.38)"/><path class="cls-8" d="M352.38,203.08v-.64a7.33,7.33,0,0,0,1.59,1.22c.81.47,1.21.37,1.21-.31a1.55,1.55,0,0,0-.89-1.38l-.6-.35a2.58,2.58,0,0,1-1.48-2.32c0-1,.63-1.18,1.89-.46a9.78,9.78,0,0,1,1.53,1.11v.64a7.37,7.37,0,0,0-1.53-1.18c-.85-.5-1.28-.42-1.28.24a1.52,1.52,0,0,0,.87,1.36l.6.35a2.63,2.63,0,0,1,1.5,2.34c0,1.05-.61,1.23-1.82.53A9.46,9.46,0,0,1,352.38,203.08Z" transform="translate(-78.6 -13.38)"/><path class="cls-8" d="M359.84,202.2v.56l-1.47-.85v4.82l-.61-.35v-4.82l-1.48-.86v-.56Z" transform="translate(-78.6 -13.38)"/><path class="cls-8" d="M360.57,208v-5.39l2,1.16a2.32,2.32,0,0,1,1.34,2.06c0,.71-.44,1-1.31.8l1.61,3.47-.8-.46-1.49-3.28v-.46c.89.36,1.34.22,1.34-.41a1.32,1.32,0,0,0-.75-1.18l-1.34-.77v4.81Z" transform="translate(-78.6 -13.38)"/><path class="cls-8" d="M364.82,208.38v-3.31l.6.35v3.31a2.51,2.51,0,0,0,1.35,2.32c.9.52,1.35.26,1.35-.77V207l.6.35v3.31q0,2.12-2,1A3.55,3.55,0,0,1,364.82,208.38Z" transform="translate(-78.6 -13.38)"/><path class="cls-8" d="M373.35,215.19a4.45,4.45,0,0,1-1.31-.53,4.6,4.6,0,0,1-2.46-4.23q0-2.66,2.46-1.23a6.89,6.89,0,0,1,1.31,1v.61a6.12,6.12,0,0,0-1.24-1c-1.29-.74-1.93-.41-1.93,1a3.6,3.6,0,0,0,1.93,3.35,3.43,3.43,0,0,0,1.24.46Z" transform="translate(-78.6 -13.38)"/><path class="cls-8" d="M377.52,212.4V213l-1.48-.86v4.83l-.6-.35v-4.83l-1.48-.85v-.56Z" transform="translate(-78.6 -13.38)"/><path class="cls-8" d="M379,213.23v5.38l-.61-.35v-5.38Z" transform="translate(-78.6 -13.38)"/><path class="cls-8" d="M380,216.53q0-2.73,2.36-1.37a4.41,4.41,0,0,1,2.32,4.08c0,1.81-.78,2.27-2.32,1.38A4.44,4.44,0,0,1,380,216.53Zm2.36,3.52c1.12.65,1.68.25,1.68-1.21a3.34,3.34,0,0,0-1.68-3.12c-1.15-.66-1.72-.27-1.72,1.16A3.37,3.37,0,0,0,382.36,220.05Z" transform="translate(-78.6 -13.38)"/><path class="cls-8" d="M385.63,222.47v-5.39l.61.35,2.87,6v-4.34l.57.33v5.39l-.6-.35-2.88-6v4.37Z" transform="translate(-78.6 -13.38)"/><path class="cls-19" d="M256.45,150.38c4.92-2.85,12.92-2.85,17.86,0,2.49,1.44,3.74,3.33,3.73,5.21v-3.8c0-1.89-1.24-3.77-3.73-5.21-4.94-2.86-12.94-2.86-17.86,0-2.44,1.42-3.66,3.28-3.67,5.14v3.8C252.79,153.66,254,151.8,256.45,150.38Z" transform="translate(-78.6 -13.38)"/><path class="cls-19" d="M279.24,159.73a25.73,25.73,0,0,1-10,3.09v3.81a26,26,0,0,0,10-3.1c3.77-2.19,5.65-5.05,5.66-7.92v-3.8C284.89,154.68,283,157.54,279.24,159.73Z" transform="translate(-78.6 -13.38)"/><path class="cls-19" d="M261.74,170.2v-3.81l0-3.57a26.09,26.09,0,0,1-10-3.09c-3.84-2.22-5.76-5.13-5.75-8v3.81c0,2.9,1.91,5.82,5.75,8a26.27,26.27,0,0,0,10,3.1Z" transform="translate(-78.6 -13.38)"/><path class="cls-19" d="M269.25,178.35h-7.36a2.84,2.84,0,0,1-1.4-.34,1,1,0,0,1-.58-.81l-.06-10.81,0,3.81.07,10.8a1,1,0,0,0,.58.81,2.81,2.81,0,0,0,1.4.34h7.36c1.09,0,2-.51,2-1.15v-3.8C271.23,177.83,270.34,178.35,269.25,178.35Z" transform="translate(-78.6 -13.38)"/><path class="cls-20" d="M271.22,177.2c0,.63-.88,1.15-2,1.15h-7.36a2.84,2.84,0,0,1-1.4-.34,1,1,0,0,1-.58-.81l-.06-10.81h1.9l0-3.57a26.09,26.09,0,0,1-10-3.09c-7.63-4.41-7.67-11.55-.09-16s19.92-4.4,27.55,0,7.67,11.55.09,16a25.73,25.73,0,0,1-10,3.09v3.57h1.91Zm-14.7-20.27c5,2.85,13,2.85,17.86,0s4.89-7.49-.06-10.35-12.94-2.86-17.86,0-4.89,7.49.06,10.35" transform="translate(-78.6 -13.38)"/><polygon class="cls-19" points="468.71 258.08 468.7 261.15 461.51 265.33 461.52 262.25 468.71 258.08"/><path class="cls-19" d="M538.54,280.9v-3.07a2.69,2.69,0,0,1,1.57-2.2v3.07A2.7,2.7,0,0,0,538.54,280.9Z" transform="translate(-78.6 -13.38)"/><polygon class="cls-19" points="449.83 267.91 449.82 270.99 447.63 266.3 447.64 263.23 449.83 267.91"/><polygon class="cls-19" points="467.57 274.74 467.56 277.81 459.47 276.55 459.48 273.48 467.57 274.74"/><polygon class="cls-19" points="479 268.09 478.99 271.17 467.56 277.81 467.57 274.74 479 268.09"/><polygon class="cls-19" points="459.48 273.48 459.47 276.55 430.34 293.48 430.35 290.41 459.48 273.48"/><path class="cls-19" d="M498.83,307.24v3.07a2.72,2.72,0,0,0-1.6-2.23,8.41,8.41,0,0,0-7.66,0V305a8.41,8.41,0,0,1,7.66,0A2.7,2.7,0,0,1,498.83,307.24Z" transform="translate(-78.6 -13.38)"/><polygon class="cls-19" points="403.79 295.81 403.78 298.88 401.17 293.3 401.18 290.23 403.79 295.81"/><polygon class="cls-19" points="410.97 291.63 410.96 294.7 403.78 298.88 403.79 295.81 410.97 291.63"/><polygon class="cls-19" points="432.54 295.09 432.53 298.17 421.1 304.81 421.11 301.74 432.54 295.09"/><polygon class="cls-19" points="421.11 301.74 421.1 304.81 411.46 303.31 411.47 300.24 421.11 301.74"/><path class="cls-20" d="M555,275.89l2.61,5.58-11.43,6.64-8.09-1.25L509,303.78l2.19,4.69-11.43,6.64-9.64-1.49,7.19-4.18c2.1-1.22,2.09-3.21,0-4.43a8.41,8.41,0,0,0-7.66,0l-7.18,4.17-2.61-5.58L491.21,297l8.09,1.25,29.13-16.92-2.19-4.69L537.67,270l9.64,1.49-7.19,4.18c-2.1,1.22-2.09,3.21,0,4.43a8.41,8.41,0,0,0,7.66,0Z" transform="translate(-78.6 -13.38)"/><polygon class="cls-1" points="218.6 115.89 218.58 122.31 218.57 119.98 218.59 113.56 218.6 115.89"/><polygon class="cls-1" points="218.61 118.22 218.59 124.64 218.58 122.31 218.6 115.89 218.61 118.22"/><path class="cls-19" d="M335.88,122.77l0,6.42a.43.43,0,0,1-.19.33l0-6.42A.43.43,0,0,0,335.88,122.77Z" transform="translate(-78.6 -13.38)"/><path class="cls-19" d="M338.92,131.6l0,6.42c0,.28-.35.51-.82.54l0-6.42C338.57,132.11,338.92,131.88,338.92,131.6Z" transform="translate(-78.6 -13.38)"/><path class="cls-19" d="M336,135.78v6.42a.47.47,0,0,1-.28.38l0-6.42A.45.45,0,0,0,336,135.78Z" transform="translate(-78.6 -13.38)"/><path class="cls-19" d="M300.13,129.18l0-6.42a.42.42,0,0,0,.2.34l0,6.42A.44.44,0,0,1,300.13,129.18Z" transform="translate(-78.6 -13.38)"/><polygon class="cls-19" points="257.09 109.72 257.07 116.14 253.3 118.98 253.32 112.56 257.09 109.72"/><polygon class="cls-19" points="225.55 112.56 225.53 118.98 221.73 116.14 221.75 109.72 225.55 112.56"/><path class="cls-19" d="M327,129.3l0,6.42c0-1.34-.88-2.67-2.64-3.69a13.94,13.94,0,0,0-12.64,0c-1.73,1-2.59,2.32-2.59,3.63v-6.42c0-1.31.87-2.63,2.6-3.63a13.94,13.94,0,0,1,12.64,0C326.11,126.63,327,128,327,129.3Z" transform="translate(-78.6 -13.38)"/><path class="cls-19" d="M298,132.14l0,6.42a1.31,1.31,0,0,1-.55-.15.49.49,0,0,1-.28-.39l0-6.42a.49.49,0,0,0,.28.39A1.23,1.23,0,0,0,298,132.14Z" transform="translate(-78.6 -13.38)"/><polygon class="cls-19" points="259.5 118.77 259.48 125.19 253.34 125.64 253.35 119.23 259.5 118.77"/><polygon class="cls-19" points="225.59 119.23 225.57 125.65 219.42 125.19 219.44 118.77 225.59 119.23"/><path class="cls-19" d="M300.2,142.19l0-6.42a.47.47,0,0,0,.28.39l0,6.42A.47.47,0,0,1,300.2,142.19Z" transform="translate(-78.6 -13.38)"/><polygon class="cls-19" points="257.08 122.79 257.06 129.21 254.22 130.85 254.24 124.44 257.08 122.79"/><polygon class="cls-19" points="224.75 124.44 224.74 130.85 221.88 129.21 221.9 122.79 224.75 124.44"/><polygon class="cls-19" points="254.24 124.44 254.22 130.85 251.39 132.5 251.41 126.08 254.24 124.44"/><polygon class="cls-19" points="250.16 126.13 250.15 132.55 245.23 130.36 245.25 123.94 250.16 126.13"/><polygon class="cls-19" points="227.61 126.08 227.59 132.5 224.74 130.85 224.75 124.44 227.61 126.08"/><polygon class="cls-19" points="233.75 123.94 233.73 130.36 228.84 132.55 228.85 126.13 233.75 123.94"/><path class="cls-19" d="M330,139.46l0,6.42a1.51,1.51,0,0,1-1.25,0l0-6.42A1.51,1.51,0,0,0,330,139.46Z" transform="translate(-78.6 -13.38)"/><path class="cls-19" d="M307.45,139.51v6.42a1.55,1.55,0,0,1-1.25-.05l0-6.42A1.53,1.53,0,0,0,307.45,139.51Z" transform="translate(-78.6 -13.38)"/><polygon class="cls-19" points="245.25 123.94 245.23 130.36 244.46 133.92 244.48 127.5 245.25 123.94"/><polygon class="cls-19" points="234.56 127.5 234.54 133.92 233.73 130.36 233.75 123.94 234.56 127.5"/><path class="cls-19" d="M323.08,140.87l0,6.42c-.06.27-.46.48-.94.48l0-6.42C322.62,141.35,323,141.14,323.08,140.87Z" transform="translate(-78.6 -13.38)"/><polygon class="cls-19" points="243.54 127.97 243.53 134.39 239.5 134.39 239.52 127.97 243.54 127.97"/><polygon class="cls-19" points="239.52 127.97 239.5 134.39 235.48 134.39 235.5 127.97 239.52 127.97"/><path class="cls-19" d="M314.1,141.35l0,6.42a1.35,1.35,0,0,1-.67-.16.55.55,0,0,1-.27-.32l0-6.42a.47.47,0,0,0,.27.32A1.35,1.35,0,0,0,314.1,141.35Z" transform="translate(-78.6 -13.38)"/><path class="cls-20" d="M335.76,135.44c.29.22.26.53-.08.72l-2.84,1.65L330,139.46a1.51,1.51,0,0,1-1.25,0l-4.91-2.19-.77,3.56c-.06.27-.46.48-.94.48h-8a1.35,1.35,0,0,1-.67-.16.47.47,0,0,1-.27-.32l-.81-3.56-4.9,2.2a1.53,1.53,0,0,1-1.24,0l-2.86-1.65-2.85-1.65c-.34-.19-.37-.5-.08-.72l3.77-2.84-6.15-.46a1.23,1.23,0,0,1-.55-.15.49.49,0,0,1-.28-.39v-4.66c0-.28.34-.51.82-.54l6.14-.46-3.8-2.84c-.29-.22-.26-.53.07-.72l2.84-1.65,2.84-1.65a1.49,1.49,0,0,1,1.24,0l4.92,2.19.77-3.56c.05-.27.46-.48.93-.48H322a1.31,1.31,0,0,1,.66.16.51.51,0,0,1,.28.32l.81,3.56,4.89-2.19a1.49,1.49,0,0,1,1.24,0l2.86,1.65,2.85,1.65c.34.19.38.5.09.72l-3.77,2.84,6.14.46a1.23,1.23,0,0,1,.55.15.49.49,0,0,1,.28.39v2.33l0,2.33c0,.28-.35.51-.82.54l-6.14.46Zm-24-2.51a13.94,13.94,0,0,0,12.64,0c3.48-2,3.46-5.3,0-7.32a13.94,13.94,0,0,0-12.64,0c-3.48,2-3.46,5.3,0,7.32" transform="translate(-78.6 -13.38)"/><path class="cls-7" d="M380.18,128.7,359.64,75.64a6.89,6.89,0,0,0-2.76-3.42c-1.07-.62-2.15-.63-2.77.23l-20.78,29.2c-1.23,1.73.3,5.67,2.75,7.09L377.4,132.6C379.86,134,381.4,131.85,380.18,128.7Z" transform="translate(-78.6 -13.38)"/><path class="cls-21" d="M385.46,125.63,364.92,72.57a6.89,6.89,0,0,0-2.76-3.42,2.25,2.25,0,0,0-2.26-.23L354.62,72a2.28,2.28,0,0,1,2.26.24,6.89,6.89,0,0,1,2.76,3.42l20.54,53.06c.77,2,.44,3.57-.51,4.13l5.28-3.07C385.9,129.2,386.23,127.61,385.46,125.63Z" transform="translate(-78.6 -13.38)"/><polygon class="cls-8" points="276.4 101.05 276.41 97.68 279.84 99.66 279.83 103.02 276.4 101.05"/><polygon class="cls-8" points="276.48 75.05 279.9 77.02 279.85 96.29 276.42 94.31 276.48 75.05"/><path class="cls-14" d="M458.8,232.09a14.79,14.79,0,0,0,2.49,1.15l-2.78,1.62a14.87,14.87,0,0,1-2.5-1.15Z" transform="translate(-78.6 -13.38)"/><path class="cls-14" d="M446.47,210.73c0,7.84,5.51,17.42,12.33,21.36L456,233.71c-6.82-3.94-12.35-13.53-12.33-21.37,0-3.89,1.39-6.63,3.61-7.93l2.79-1.61c-2.22,1.29-3.6,4-3.61,7.93Z" transform="translate(-78.6 -13.38)"/><path class="cls-8" d="M450.52,225.06l2.79-1.62a18.07,18.07,0,0,0,5.5,5.24L456,230.3A18.19,18.19,0,0,1,450.52,225.06Z" transform="translate(-78.6 -13.38)"/><path class="cls-8" d="M446.65,214.06l2.79-1.62a17.84,17.84,0,0,0,1.77,7.37l-2.78,1.62A17.86,17.86,0,0,1,446.65,214.06Z" transform="translate(-78.6 -13.38)"/><path class="cls-8" d="M465.5,229.33,462.71,231c-1.71,1-4.08.85-6.69-.65l2.79-1.62C461.42,230.18,463.79,230.32,465.5,229.33Z" transform="translate(-78.6 -13.38)"/><path class="cls-8" d="M449.4,208l2.78-1.62c-1.69,1-2.73,3.07-2.74,6l-2.79,1.62C446.66,211.1,447.71,209,449.4,208Z" transform="translate(-78.6 -13.38)"/><path class="cls-14" d="M461.29,233.24a7.48,7.48,0,0,0,6.31-.3l-2.79,1.62a7.46,7.46,0,0,1-6.3.3Z" transform="translate(-78.6 -13.38)"/><path class="cls-14" d="M449.4,208l2.78-1.62c1.71-1,4.08-.85,6.69.66l-2.78,1.61C453.48,207.18,451.11,207,449.4,208Z" transform="translate(-78.6 -13.38)"/><path class="cls-8" d="M447.29,204.42l2.79-1.62c2.25-1.31,5.37-1.13,8.8.85l-2.78,1.62C452.66,203.29,449.55,203.11,447.29,204.42Z" transform="translate(-78.6 -13.38)"/><path class="cls-14" d="M468.24,223.3c0,3-1.05,5-2.74,6L462.71,231c1.69-1,2.74-3.07,2.75-6a18,18,0,0,0-1.78-7.37l2.79-1.62A17.88,17.88,0,0,1,468.24,223.3Z" transform="translate(-78.6 -13.38)"/><polygon class="cls-14" points="371.92 211.68 374.7 210.06 387.87 202.56 385.08 204.18 371.92 211.68"/><polygon class="cls-8" points="369.83 208.05 372.61 206.44 385.78 198.93 382.99 200.55 369.83 208.05"/><path class="cls-14" d="M458.87,207.07a18,18,0,0,1,5.51,5.24l-2.79,1.62a18.1,18.1,0,0,0-5.5-5.25Z" transform="translate(-78.6 -13.38)"/><path class="cls-8" d="M467.6,232.94l-2.78,1.62c2.22-1.29,3.6-4,3.61-7.93,0-7.84-5.51-17.42-12.33-21.36l2.78-1.62c6.82,3.94,12.36,13.52,12.33,21.36C471.2,228.91,469.82,231.65,467.6,232.94Z" transform="translate(-78.6 -13.38)"/><path class="cls-8" d="M456.1,205.27c6.82,3.94,12.35,13.52,12.33,21.36s-5.59,11-12.42,7.08-12.35-13.53-12.33-21.37S449.27,201.33,456.1,205.27Zm-9.45,8.79a17.86,17.86,0,0,0,1.78,7.37l13.16-7.5a18.1,18.1,0,0,0-5.5-5.25c-5.19-3-9.42-.58-9.44,5.38M456,230.3c5.19,3,9.42.58,9.44-5.38a18,18,0,0,0-1.78-7.37l-13.16,7.51a18.19,18.19,0,0,0,5.5,5.24" transform="translate(-78.6 -13.38)"/><path class="cls-14" d="M450.52,225.06l13.16-7.51a18,18,0,0,1,1.78,7.37c0,6-4.25,8.37-9.44,5.38A18.19,18.19,0,0,1,450.52,225.06Z" transform="translate(-78.6 -13.38)"/><path class="cls-14" d="M456.09,208.68a18.1,18.1,0,0,1,5.5,5.25l-13.16,7.5a17.86,17.86,0,0,1-1.78-7.37C446.67,208.1,450.9,205.69,456.09,208.68Z" transform="translate(-78.6 -13.38)"/><path class="cls-14" d="M472.07,207.14a6.18,6.18,0,0,1,2.8,4.84l-.11,36.68c0,1.78-1.26,2.49-2.81,1.6L440,231.83a6.17,6.17,0,0,1-2.8-4.84l.11-36.67c0-1.78,1.26-2.5,2.81-1.6ZM456,233.71c6.83,3.94,12.4.76,12.42-7.08s-5.51-17.42-12.33-21.36-12.4-.77-12.42,7.07,5.51,17.43,12.33,21.37" transform="translate(-78.6 -13.38)"/><path class="cls-12" d="M474.86,205.52,442.94,187.1a2,2,0,0,0-2-.2l-2.79,1.62a2,2,0,0,1,2,.2l31.91,18.42a6.18,6.18,0,0,1,2.8,4.84l-.11,36.68a2,2,0,0,1-.81,1.79l2.78-1.61a2,2,0,0,0,.82-1.8l.1-36.67A6.16,6.16,0,0,0,474.86,205.52Z" transform="translate(-78.6 -13.38)"/><path class="cls-10" d="M506.33,197.82a27.54,27.54,0,0,0,8.06,7.5l-3.23,1.88a27.45,27.45,0,0,1-8.07-7.5Z" transform="translate(-78.6 -13.38)"/><path class="cls-10" d="M500,180.37c0,5.72,2.5,12.24,6.34,17.45l-3.24,1.88c-3.84-5.21-6.35-11.73-6.34-17.45,0-4.55,1.63-7.75,4.22-9.26l3.24-1.88C501.61,172.61,500,175.82,500,180.37Z" transform="translate(-78.6 -13.38)"/><path class="cls-16" d="M502.26,175.2l3.23-1.88c-2.27,1.32-3.68,4.12-3.69,8.1,0,8,5.63,17.79,12.6,21.81l-3.24,1.89c-7-4-12.62-13.82-12.6-21.82C498.58,179.32,500,176.52,502.26,175.2Z" transform="translate(-78.6 -13.38)"/><polygon class="cls-10" points="427.27 178.93 430.5 177.05 430.5 179.13 427.26 181.02 427.27 178.93"/><polygon class="cls-10" points="430.24 182.74 433.48 180.86 433.47 182.53 430.24 184.41 430.24 182.74"/><polygon class="cls-10" points="427.26 181.02 430.5 179.13 433.48 180.86 430.24 182.74 427.26 181.02"/><polygon class="cls-16" points="430.24 181.7 433.48 179.81 433.48 180.86 430.24 182.74 430.24 181.7"/><path class="cls-10" d="M514.39,205.32c4,2.31,7.65,2.52,10.28,1l-3.23,1.88c-2.63,1.53-6.27,1.31-10.28-1Z" transform="translate(-78.6 -13.38)"/><path class="cls-16" d="M523.39,204.11,520.15,206c-2.3,1.34-5.48,1.15-9-.87l3.24-1.89C517.91,205.26,521.09,205.44,523.39,204.11Z" transform="translate(-78.6 -13.38)"/><path class="cls-10" d="M518,202.09,514.72,204a2.4,2.4,0,0,1-2.45-.24,7.55,7.55,0,0,1-3.43-5.95l3.23-1.88a7.6,7.6,0,0,0,3.44,5.95A2.44,2.44,0,0,0,518,202.09Z" transform="translate(-78.6 -13.38)"/><polygon class="cls-16" points="432.05 183.78 435.29 181.9 435.29 183.57 432.05 185.46 432.05 183.78"/><path class="cls-16" d="M516.68,199.88l-3.24,1.88a1.13,1.13,0,0,1-1.16-.11,3.6,3.6,0,0,1-1.63-2.82l3.24-1.88a3.58,3.58,0,0,0,1.62,2.82A1.18,1.18,0,0,0,516.68,199.88Z" transform="translate(-78.6 -13.38)"/><polygon class="cls-10" points="424.64 170.64 427.88 168.76 428.9 170.53 425.66 172.41 424.64 170.64"/><polygon class="cls-16" points="432.06 182.74 435.29 180.86 435.29 181.9 432.05 183.78 432.06 182.74"/><polygon class="cls-16" points="430.24 181.7 433.48 179.81 435.29 180.86 432.06 182.74 430.24 181.7"/><path class="cls-10" d="M516.68,199.88l-3.24,1.88a1.16,1.16,0,0,0,.48-1l3.23-1.88A1.14,1.14,0,0,1,516.68,199.88Z" transform="translate(-78.6 -13.38)"/><polygon class="cls-10" points="435.32 185.67 438.56 183.79 438.55 185.46 435.31 187.34 435.32 185.67"/><polygon class="cls-10" points="432.05 183.78 435.29 181.9 438.56 183.79 435.32 185.67 432.05 183.78"/><polygon class="cls-16" points="424.64 170.64 427.88 168.76 429.37 167.91 426.13 169.79 424.64 170.64"/><path class="cls-16" d="M518,202.09,514.72,204a2.4,2.4,0,0,0,1-2.21l3.24-1.88A2.42,2.42,0,0,1,518,202.09Z" transform="translate(-78.6 -13.38)"/><polygon class="cls-16" points="435.32 184.63 438.56 182.75 438.56 183.79 435.32 185.67 435.32 184.63"/><polygon class="cls-16" points="437.13 186.72 440.37 184.84 440.37 186.51 437.13 188.39 437.13 186.72"/><polygon class="cls-16" points="437.14 185.68 440.37 183.79 440.37 184.84 437.13 186.72 437.14 185.68"/><polygon class="cls-16" points="435.32 184.63 438.56 182.75 440.37 183.79 437.14 185.68 435.32 184.63"/><polygon class="cls-16" points="437.92 185.08 441.15 183.2 441.15 185.28 437.91 187.16 437.92 185.08"/><polygon class="cls-16" points="427.27 178.93 430.5 177.05 441.15 183.2 437.92 185.08 427.27 178.93"/><polygon class="cls-10" points="435.55 176.94 438.79 175.06 439.81 176.83 436.58 178.71 435.55 176.94"/><polygon class="cls-10" points="438.07 177.86 441.31 175.98 442.79 178.55 439.55 180.43 438.07 177.86"/><polygon class="cls-10" points="436.58 178.71 439.81 176.83 441.31 175.98 438.07 177.86 436.58 178.71"/><polygon class="cls-16" points="437.04 176.09 440.28 174.21 441.31 175.98 438.07 177.86 437.04 176.09"/><polygon class="cls-16" points="435.55 176.94 438.79 175.06 440.28 174.21 437.04 176.09 435.55 176.94"/><polygon class="cls-10" points="435.56 173.53 438.8 171.64 440.28 174.21 437.04 176.09 435.56 173.53"/><polygon class="cls-10" points="439.55 180.43 442.79 178.55 443.81 177.96 440.58 179.84 439.55 180.43"/><polygon class="cls-16" points="439.1 177.28 442.33 175.39 443.81 177.96 440.58 179.84 439.1 177.28"/><polygon class="cls-16" points="438.07 175.5 441.31 173.62 442.33 175.39 439.1 177.28 438.07 175.5"/><polygon class="cls-16" points="436.59 172.94 439.83 171.06 441.31 173.62 438.07 175.5 436.59 172.94"/><polygon class="cls-16" points="438.07 175.5 441.31 173.62 442.8 172.77 439.56 174.65 438.07 175.5"/><polygon class="cls-16" points="435.56 173.53 438.8 171.64 439.83 171.06 436.59 172.94 435.56 173.53"/><polygon class="cls-10" points="439.1 177.28 442.33 175.39 443.82 174.54 440.59 176.43 439.1 177.28"/><polygon class="cls-16" points="439.56 174.65 442.8 172.77 443.82 174.54 440.59 176.43 439.56 174.65"/><path class="cls-10" d="M526.36,190.71l-3.24,1.88c-1.73-6.62-6.39-13.35-11.88-16.52l3.24-1.88C520,177.35,524.63,184.09,526.36,190.71Z" transform="translate(-78.6 -13.38)"/><path class="cls-10" d="M511.24,176.07c7,4,12.62,13.81,12.6,21.82s-5.71,11.25-12.68,7.23-12.62-13.82-12.6-21.82S504.28,172.05,511.24,176.07Zm5.27,24.47v-2.08l-10.65-6.15v2.08l3,1.72v1.67a7.55,7.55,0,0,0,3.43,5.95c1.9,1.1,3.45.22,3.46-2v-1.67l.78.45m2.67-7.32-1.48-2.57,1.49-.85-1-1.77-1.49.85-1.48-2.57-1,.59,1.48,2.57-1.49.85,1,1.77,1.49-.85,1.48,2.56,1-.58m-14.92-7.43,1.49-.85,1.48,2.56,1-.59-1.48-2.56,1.49-.85-1-1.77-1.49.85L504.28,180l-1,.59,1.48,2.57-1.49.85,1,1.77" transform="translate(-78.6 -13.38)"/><path class="cls-10" d="M523.9,203.78q-.25.18-.51.33L520.15,206a5.54,5.54,0,0,0,.51-.33Z" transform="translate(-78.6 -13.38)"/><path class="cls-10" d="M523.9,203.78l-.13.07-.41.24-.53.31-2.17,1.26c2-1.43,3.17-4.1,3.18-7.77h0l3.24-1.88h0C527.07,199.68,525.87,202.35,523.9,203.78Z" transform="translate(-78.6 -13.38)"/><path class="cls-10" d="M505.49,173.32c2.3-1.34,5.49-1.16,9,.87l-3.24,1.88c-3.5-2-6.68-2.21-9-.87Z" transform="translate(-78.6 -13.38)"/><path class="cls-16" d="M501,173l3.24-1.88c2.63-1.53,6.27-1.32,10.28,1L511.25,174C507.24,171.67,503.6,171.46,501,173Z" transform="translate(-78.6 -13.38)"/><path class="cls-10" d="M526.36,190.71a21.1,21.1,0,0,1,.72,5.3l-3.24,1.88a20.65,20.65,0,0,0-.72-5.3Z" transform="translate(-78.6 -13.38)"/><path class="cls-16" d="M524.68,206.32l-3.24,1.88c2.59-1.51,4.2-4.71,4.22-9.26,0-9.16-6.44-20.35-14.41-25l3.24-1.88c8,4.6,14.43,15.8,14.4,25C528.88,201.61,527.27,204.81,524.68,206.32Z" transform="translate(-78.6 -13.38)"/><path class="cls-17" d="M514.5,166.63c-5.34-3.08-10.17-3.37-13.67-1.34l-3.24,1.89c3.5-2,8.34-1.75,13.68,1.33,10.61,6.13,19.18,21,19.15,33.18,0,6.05-2.16,10.32-5.61,12.32l3.24-1.88c3.45-2,5.59-6.27,5.61-12.32C533.69,187.61,525.12,172.76,514.5,166.63Z" transform="translate(-78.6 -13.38)"/><path class="cls-10" d="M511.27,168.51c-10.62-6.12-19.25-1.2-19.28,11s8.54,27.05,19.15,33.17,19.24,1.21,19.28-11S521.88,174.64,511.27,168.51Zm12.86,36.93c0,.09-.1.18-.16.27a7.54,7.54,0,0,1-1.87,2,7.26,7.26,0,0,1-1.09.67l-.26.12-.26.11-.41.14a7.75,7.75,0,0,1-2.34.38h-.48l-.32,0-.31,0h0a12.43,12.43,0,0,1-1.29-.22l-.41-.1-.43-.13-.29-.09-.4-.14-.12,0-.59-.24-.15-.07-.21-.09-.35-.16c-.4-.19-.8-.41-1.2-.64a24.66,24.66,0,0,1-5.29-4.21l-.33-.34c-.2-.22-.41-.44-.61-.67l-.39-.45-.51-.62-.42-.53-.35-.46c-.58-.77-1.13-1.57-1.64-2.39-.28-.44-.54-.89-.8-1.34l-.21-.37-.44-.82c-.17-.34-.34-.68-.5-1-.1-.19-.19-.39-.28-.58s-.13-.3-.19-.44c-.2-.45-.38-.9-.55-1.34-.06-.15-.12-.3-.17-.45-.17-.45-.32-.9-.47-1.35-.05-.15-.09-.3-.14-.46s-.18-.6-.26-.9a27.32,27.32,0,0,1-.64-3.14,21.54,21.54,0,0,1-.22-3.07q0-.54,0-1.05l0-.4c.05-.54.12-1.05.21-1.54,0-.12.05-.24.07-.36a11.29,11.29,0,0,1,.33-1.21c.09-.27.18-.54.29-.79s.13-.3.2-.45a9,9,0,0,1,.53-1c.11-.18.22-.34.34-.51a8.47,8.47,0,0,1,.67-.79,6.15,6.15,0,0,1,.53-.49l.22-.18.23-.17.23-.16c.16-.1.32-.2.49-.29l.25-.13.26-.12.26-.11.54-.19a7.87,7.87,0,0,1,1.9-.32h.95l.46,0,.2,0,.29,0a12.29,12.29,0,0,1,1.26.26l.24.07.23.07.17.05.78.28.22.09a17.52,17.52,0,0,1,2.09,1,24.44,24.44,0,0,1,4.61,3.54l0,0c.56.54,1.1,1.11,1.63,1.7l.31.36.45.53.33.42.36.46c.25.33.49.65.73,1s.31.45.47.68.36.54.53.82a35.29,35.29,0,0,1,2.43,4.53c.12.26.23.52.34.78.29.7.55,1.4.79,2.11s.38,1.2.54,1.81c.09.3.16.6.23.9s.13.6.19.9.07.35.1.52c.07.41.13.81.18,1.21l.06.5c.07.74.11,1.46.11,2.18a12.93,12.93,0,0,1-1.53,6.5" transform="translate(-78.6 -13.38)"/><path class="cls-10" d="M510.65,197.16v1.67a1.21,1.21,0,0,0,0,.19v0a2.58,2.58,0,0,0,.06.37v.05a2.17,2.17,0,0,0,.07.24.14.14,0,0,0,0,.07.5.5,0,0,0,.05.13,3.68,3.68,0,0,0,.31.63l.18.27c.05.06.09.12.14.17a3,3,0,0,0,.29.32l.16.13a1.5,1.5,0,0,0,.33.23l.24.12.16.06.16,0h.21c.52,0,.86-.44.87-1.15v-1.67Z" transform="translate(-78.6 -13.38)"/><polygon class="cls-8" points="425.68 166.64 427.16 169.2 428.18 170.97 429.66 173.54 428.63 174.13 427.15 171.56 426.13 169.79 424.65 167.23 425.68 166.64"/><polygon class="cls-8" points="437.92 185.08 437.91 187.16 437.13 186.72 437.14 185.68 435.32 184.63 435.32 185.67 432.05 183.78 432.06 182.74 430.24 181.7 430.24 182.74 427.26 181.02 427.27 178.93 437.92 185.08"/><polygon class="cls-8" points="428.65 168.35 429.67 170.13 428.18 170.97 427.16 169.2 428.65 168.35"/><polygon class="cls-8" points="435.55 176.94 437.04 176.09 438.07 177.86 436.58 178.71 435.55 176.94"/><polygon class="cls-8" points="436.59 172.94 438.07 175.5 439.1 177.28 440.58 179.84 439.55 180.43 438.07 177.86 437.04 176.09 435.56 173.53 436.59 172.94"/><polygon class="cls-8" points="424.64 170.64 426.13 169.79 427.15 171.56 425.66 172.41 424.64 170.64"/><path class="cls-8" d="M511.25,174c8,4.61,14.43,15.8,14.41,25s-6.53,12.86-14.5,8.26-14.43-15.79-14.41-24.95S503.28,169.38,511.25,174Zm-.09,31.14c7,4,12.66.78,12.68-7.23s-5.63-17.8-12.6-21.82-12.65-.78-12.68,7.23,5.63,17.79,12.6,21.82" transform="translate(-78.6 -13.38)"/><path class="cls-8" d="M515.74,199.05v2.71c0,2.19-1.56,3.07-3.46,2a7.55,7.55,0,0,1-3.43-5.95v-2.71l1.82,1.05v2.71a3.6,3.6,0,0,0,1.63,2.82c.9.52,1.63.1,1.64-.93V198Z" transform="translate(-78.6 -13.38)"/><polygon class="cls-8" points="439.56 174.65 440.59 176.43 439.1 177.28 438.07 175.5 439.56 174.65"/><path class="cls-8" d="M383.85,52c0,1.09-.76,1.52-1.71,1a3.8,3.8,0,0,1-1.72-3c0-1.09.77-1.53,1.72-1A3.77,3.77,0,0,1,383.85,52Z" transform="translate(-78.6 -13.38)"/><path class="cls-8" d="M389.47,55.27c0,1.09-.77,1.52-1.72,1a3.8,3.8,0,0,1-1.71-3c0-1.09.77-1.53,1.71-1A3.78,3.78,0,0,1,389.47,55.27Z" transform="translate(-78.6 -13.38)"/><path class="cls-8" d="M395.08,58.51c0,1.09-.77,1.53-1.71,1a3.78,3.78,0,0,1-1.72-3c0-1.09.77-1.53,1.72-1A3.8,3.8,0,0,1,395.08,58.51Z" transform="translate(-78.6 -13.38)"/><text x="-78.6" y="-13.38"/></g></svg>