<?xml version="1.0"?>
<svg xmlns="http://www.w3.org/2000/svg" xmlns:xlink="http://www.w3.org/1999/xlink" xmlns:svgjs="http://svgjs.com/svgjs" version="1.1" width="512" height="512" x="0" y="0" viewBox="0 0 479.058 479.058" style="enable-background:new 0 0 512 512" xml:space="preserve" class=""><rect width="479.058" height="479.058" rx="20" ry="20" fill="#ffffff" shape="rounded" transform="matrix(0,0,0,0,239.5290069580078,239.5290069580078)"/><g transform="matrix(0.79,0,0,0.79,50.30109146118167,50.30109146118167)"><path xmlns="http://www.w3.org/2000/svg" d="m14.971 479.058c-3.903 0-7.734-1.535-10.585-4.386-4.035-4.035-5.424-10.029-3.582-15.424l33.172-97.045c-22.251-37.208-33.976-79.458-33.976-122.674 0-132.074 107.455-239.529 239.529-239.529s239.529 107.455 239.529 239.529-107.455 239.529-239.529 239.529c-43.216 0-85.467-11.725-122.674-33.976l-97.045 33.171c-1.579.541-3.217.804-4.839.805zm103.741-65.409c2.822 0 5.629.804 8.07 2.354 33.845 21.666 72.835 33.114 112.747 33.114 115.568 0 209.588-94.019 209.588-209.588s-94.02-209.588-209.588-209.588-209.588 94.019-209.588 209.588c0 39.912 11.447 78.902 33.114 112.747 2.456 3.845 3.026 8.596 1.55 12.909l-25.599 74.867 74.867-25.599c1.579-.541 3.216-.804 4.839-.804z" fill="#fdfdfd" data-original="#000000" style="" class=""/></g></svg>
