<?xml version="1.0"?>
<svg xmlns="http://www.w3.org/2000/svg" xmlns:xlink="http://www.w3.org/1999/xlink" xmlns:svgjs="http://svgjs.com/svgjs" version="1.1" width="512" height="512" x="0" y="0" viewBox="0 0 512 512" style="enable-background:new 0 0 512 512" xml:space="preserve" class=""><g transform="matrix(-0.7899999999999999,0,0,0.7899999999999999,458.24,53.759996795654274)"><g xmlns="http://www.w3.org/2000/svg"><circle cx="256" cy="226" r="15" fill="#ffffff" data-original="#000000" style="" class=""/><circle cx="376" cy="226" r="15" fill="#ffffff" data-original="#000000" style="" class=""/><path d="m256 31c-140.61 0-256 87.48-256 195s115.39 195 256 195c14.355 0 28.887-.967 43.33-2.871 29.446 40.759 77.488 62.871 113.789 62.871 5.61 0 10.781-3.135 13.359-8.174 2.71-5.303 2.021-11.689-1.743-16.304-15.322-18.809-25.752-42.231-30.439-66.782 72.29-35.713 117.704-97.617 117.704-163.74 0-107.52-115.39-195-256-195zm-120 240c-24.814 0-45-20.186-45-45s20.186-45 45-45 45 20.186 45 45-20.186 45-45 45zm120 0c-24.814 0-45-20.186-45-45s20.186-45 45-45 45 20.186 45 45-20.186 45-45 45zm120 0c-24.814 0-45-20.186-45-45s20.186-45 45-45 45 20.186 45 45-20.186 45-45 45z" fill="#ffffff" data-original="#000000" style="" class=""/><circle cx="136" cy="226" r="15" fill="#ffffff" data-original="#000000" style="" class=""/></g></g></svg>
