<?xml version="1.0" encoding="iso-8859-1"?>
<!-- Generator: Adobe Illustrator 19.0.0, SVG Export Plug-In . SVG Version: 6.00 Build 0)  -->
<svg version="1.1" id="Capa_1" xmlns="http://www.w3.org/2000/svg" xmlns:xlink="http://www.w3.org/1999/xlink" x="0px" y="0px"
	 viewBox="0 0 512 512" style="enable-background:new 0 0 512 512;" xml:space="preserve">
<path style="fill:#7CB777;" d="M396.499,133.341V94.35c0-11.381-9.226-20.608-20.608-20.608h-52.451
	c-11.381,0-20.608,9.226-20.608,20.608L256,170.187l46.833,135.418l41.816,20.447l51.85-20.447l46.833-96.436L396.499,133.341z"/>
<path style="fill:#FADC60;" d="M209.167,94.35c0-11.381-9.226-20.608-20.608-20.608h-52.451c-11.381,0-20.608,9.226-20.608,20.608
	v38.991l-46.833,75.829l46.833,96.436l41.816,20.447l51.85-20.447L256,170.187L209.167,94.35z"/>
<path style="fill:#FD6F71;" d="M94.894,112.734H42.442c-11.381,0-20.608,9.226-20.608,20.608v172.265l41.817,20.446l51.85-20.447
	V133.341C115.501,121.961,106.275,112.734,94.894,112.734z"/>
<ellipse style="fill:#E34B4C;" cx="68.672" cy="180.406" rx="18.584" ry="26.444"/>
<path style="fill:#FADC60;" d="M469.558,112.734h-52.451c-11.381,0-20.608,9.226-20.608,20.608v172.265l41.816,20.447l51.85-20.447
	V133.341C490.164,121.961,480.938,112.734,469.558,112.734z"/>
<ellipse style="fill:#E0B629;" cx="443.328" cy="180.406" rx="18.584" ry="26.444"/>
<path style="fill:#57D0E6;" d="M282.225,34.769h-52.451c-11.381,0-20.608,9.226-20.608,20.608v250.229l41.816,20.447l51.85-20.447
	V55.377C302.833,43.995,293.607,34.769,282.225,34.769z"/>
<rect x="209.168" y="84.764" style="fill:#EFEDEE;" width="93.664" height="39.63"/>
<g>
	<path style="fill:#C86D5C;" d="M40.052,338.205l2.604,125.871c0.151,7.309,6.12,13.155,13.43,13.155h15.128
		c7.311,0,13.28-5.846,13.43-13.155l2.604-125.871L40.052,338.205L40.052,338.205z"/>
	<path style="fill:#C86D5C;" d="M471.948,338.205l-2.604,125.871c-0.151,7.309-6.12,13.155-13.43,13.155h-15.128
		c-7.311,0-13.28-5.846-13.43-13.155l-2.604-125.871L471.948,338.205L471.948,338.205z"/>
</g>
<g>
	<polygon style="fill:#AD4F3D;" points="426.063,401.71 470.634,401.71 471.948,338.205 424.749,338.205 	"/>
	<polygon style="fill:#AD4F3D;" points="41.366,401.71 85.937,401.71 87.251,338.205 40.052,338.205 	"/>
</g>
<path style="fill:#C86D5C;" d="M490.165,305.606H21.836C9.776,305.606,0,315.382,0,327.441v21.528
	c0,12.059,9.776,21.836,21.836,21.836h468.33c12.059,0,21.835-9.776,21.835-21.836v-21.528
	C512,315.382,502.224,305.606,490.165,305.606z"/>
<g>
	<rect x="209.168" y="235.933" style="fill:#EFEDEE;" width="93.664" height="39.63"/>
	<rect x="302.832" y="147.677" style="fill:#EFEDEE;" width="93.664" height="70.681"/>
</g>
<rect x="115.504" y="147.677" style="fill:#E0B629;" width="93.664" height="70.681"/>
<g>
</g>
<g>
</g>
<g>
</g>
<g>
</g>
<g>
</g>
<g>
</g>
<g>
</g>
<g>
</g>
<g>
</g>
<g>
</g>
<g>
</g>
<g>
</g>
<g>
</g>
<g>
</g>
<g>
</g>
</svg>
